<svg width="536" height="149" viewBox="0 0 536 149" fill="none" xmlns="http://www.w3.org/2000/svg">
<g filter="url(#filter0_i_50_15)">
<path d="M98.9965 49.5019L58.8852 60.5285L30.8871 97.9798L71.4375 86.7142L98.9965 49.5019Z" fill="#9B0000"/>
</g>
<g filter="url(#filter1_i_50_15)">
<path d="M17.4566 72.2724L72.0138 1.00001C80.529 20.538 82.6033 31.9648 61.8806 56.6199L31.087 97.3016L17.4566 72.2724Z" fill="#EB0000"/>
<path d="M112.666 75.6485L58.348 147.36C51.5964 130.094 49.423 120.096 62.6902 98.8791L98.7965 50.1802L112.666 75.6485Z" fill="#EB0000"/>
</g>
<path d="M17.4566 72.2724L72.0138 1.00001C80.529 20.538 82.6033 31.9648 61.8806 56.6199L31.087 97.3016L17.4566 72.2724Z" stroke="#EB0000"/>
<path d="M112.666 75.6485L58.348 147.36C51.5964 130.094 49.423 120.096 62.6902 98.8791L98.7965 50.1802L112.666 75.6485Z" stroke="#EB0000"/>
<g filter="url(#filter2_i_50_15)">
<path d="M150.757 103.217C146.45 103.217 142.752 102.508 139.661 101.089C136.57 99.6702 134.037 97.7195 132.061 95.2369C130.136 92.7542 128.717 89.9169 127.805 86.7249C126.893 83.4822 126.437 80.0875 126.437 76.5409V48.8009H141.257V76.5409C141.257 78.3142 141.434 80.0115 141.789 81.6329C142.144 83.2542 142.701 84.6982 143.461 85.9649C144.221 87.2315 145.184 88.2449 146.349 89.0049C147.565 89.7142 149.034 90.0689 150.757 90.0689C152.53 90.0689 154.025 89.7142 155.241 89.0049C156.457 88.2449 157.42 87.2315 158.129 85.9649C158.889 84.6475 159.446 83.1782 159.801 81.5569C160.156 79.9355 160.333 78.2635 160.333 76.5409V48.8009H175.153V76.5409C175.153 80.2902 174.646 83.7862 173.633 87.0289C172.67 90.2715 171.201 93.1089 169.225 95.5409C167.249 97.9729 164.716 99.8729 161.625 101.241C158.585 102.558 154.962 103.217 150.757 103.217ZM183.677 102.761V48.8009H206.933C209.568 48.8009 212 49.3329 214.229 50.3969C216.459 51.4609 218.384 52.9049 220.005 54.7289C221.627 56.5022 222.868 58.5035 223.729 60.7329C224.641 62.9622 225.097 65.2169 225.097 67.4969C225.097 70.6889 224.337 73.7035 222.817 76.5409C221.348 79.3782 219.271 81.7089 216.585 83.5329C213.951 85.3062 210.86 86.1929 207.313 86.1929H198.497V102.761H183.677ZM198.497 73.2729H206.325C206.933 73.2729 207.516 73.0955 208.073 72.7409C208.631 72.3862 209.087 71.7782 209.441 70.9169C209.847 70.0555 210.049 68.9155 210.049 67.4969C210.049 65.9769 209.821 64.8115 209.365 64.0009C208.96 63.1395 208.428 62.5569 207.769 62.2529C207.161 61.8982 206.553 61.7209 205.945 61.7209H198.497V73.2729ZM269.485 89.8409V102.761H231.029V48.8009H268.801V61.7209H245.849V69.3209H265.457V81.3289H245.849V89.8409H269.485ZM276.377 102.761V48.8009H301.153C303.787 48.8009 306.219 49.3329 308.449 50.3969C310.678 51.4609 312.603 52.9049 314.225 54.7289C315.846 56.5022 317.087 58.5035 317.949 60.7329C318.861 62.9622 319.317 65.2169 319.317 67.4969C319.317 69.5742 319.013 71.5755 318.405 73.5009C317.797 75.4262 316.91 77.1995 315.745 78.8209C314.579 80.3915 313.186 81.7595 311.565 82.9249L322.965 102.761H306.701L297.201 86.1929H291.197V102.761H276.377ZM291.197 73.2729H300.545C301.153 73.2729 301.735 73.0449 302.293 72.5889C302.85 72.1329 303.306 71.4742 303.661 70.6129C304.066 69.7515 304.269 68.7129 304.269 67.4969C304.269 66.2302 304.041 65.1915 303.585 64.3809C303.179 63.5195 302.647 62.8609 301.989 62.4049C301.381 61.9489 300.773 61.7209 300.165 61.7209H291.197V73.2729ZM340.126 48.8009H356.694L373.87 102.761H358.822L355.554 92.1969H341.19L337.998 102.761H322.874L340.126 48.8009ZM353.198 82.3169L348.41 63.3169L343.394 82.3169H353.198ZM378.353 102.761V48.8009H415.365V61.7209H393.173V70.6889H411.261V82.6969H393.173V102.761H378.353ZM421.177 102.761V48.8009H435.997V89.8409H460.469V102.761H421.177ZM465.634 102.761V48.8009H480.454V102.761H465.634ZM500.32 48.8009L510.124 65.8249L519.928 48.8009H535.888L518.94 76.1609L535.28 102.761H519.32L510.124 86.4969L500.928 102.761H484.892L501.232 76.1609L484.284 48.8009H500.32Z" fill="#EB0000"/>
</g>
<defs>
<filter id="filter0_i_50_15" x="30.8871" y="49.5019" width="68.1094" height="52.4779" filterUnits="userSpaceOnUse" color-interpolation-filters="sRGB">
<feFlood flood-opacity="0" result="BackgroundImageFix"/>
<feBlend mode="normal" in="SourceGraphic" in2="BackgroundImageFix" result="shape"/>
<feColorMatrix in="SourceAlpha" type="matrix" values="0 0 0 0 0 0 0 0 0 0 0 0 0 0 0 0 0 0 127 0" result="hardAlpha"/>
<feOffset dy="4"/>
<feGaussianBlur stdDeviation="2"/>
<feComposite in2="hardAlpha" operator="arithmetic" k2="-1" k3="1"/>
<feColorMatrix type="matrix" values="0 0 0 0 0 0 0 0 0 0 0 0 0 0 0 0 0 0 0.25 0"/>
<feBlend mode="normal" in2="shape" result="effect1_innerShadow_50_15"/>
</filter>
<filter id="filter1_i_50_15" x="16.8622" y="0.0218201" width="96.3975" height="152.352" filterUnits="userSpaceOnUse" color-interpolation-filters="sRGB">
<feFlood flood-opacity="0" result="BackgroundImageFix"/>
<feBlend mode="normal" in="SourceGraphic" in2="BackgroundImageFix" result="shape"/>
<feColorMatrix in="SourceAlpha" type="matrix" values="0 0 0 0 0 0 0 0 0 0 0 0 0 0 0 0 0 0 127 0" result="hardAlpha"/>
<feOffset dy="4"/>
<feGaussianBlur stdDeviation="2"/>
<feComposite in2="hardAlpha" operator="arithmetic" k2="-1" k3="1"/>
<feColorMatrix type="matrix" values="0 0 0 0 1 0 0 0 0 1 0 0 0 0 1 0 0 0 0.25 0"/>
<feBlend mode="normal" in2="shape" result="effect1_innerShadow_50_15"/>
</filter>
<filter id="filter2_i_50_15" x="126.437" y="48.8009" width="409.451" height="58.416" filterUnits="userSpaceOnUse" color-interpolation-filters="sRGB">
<feFlood flood-opacity="0" result="BackgroundImageFix"/>
<feBlend mode="normal" in="SourceGraphic" in2="BackgroundImageFix" result="shape"/>
<feColorMatrix in="SourceAlpha" type="matrix" values="0 0 0 0 0 0 0 0 0 0 0 0 0 0 0 0 0 0 127 0" result="hardAlpha"/>
<feOffset dy="4"/>
<feGaussianBlur stdDeviation="2"/>
<feComposite in2="hardAlpha" operator="arithmetic" k2="-1" k3="1"/>
<feColorMatrix type="matrix" values="0 0 0 0 1 0 0 0 0 1 0 0 0 0 1 0 0 0 0.25 0"/>
<feBlend mode="normal" in2="shape" result="effect1_innerShadow_50_15"/>
</filter>
</defs>
</svg>
